<?xml version="1.0" encoding="UTF-8"?> <svg xmlns="http://www.w3.org/2000/svg" width="1600" height="1600" viewBox="0 0 1600 1600" fill="none"><path d="M1576.27 993.537C1537.99 1147.06 1455.05 1285.79 1337.92 1392.17C1220.8 1498.56 1074.76 1567.83 918.268 1591.21C761.778 1614.6 601.866 1591.06 458.755 1523.56C315.644 1456.07 195.762 1347.65 114.268 1212.03C32.7747 1076.4 -6.67025 919.658 0.921658 761.615C8.51356 603.572 62.8013 451.33 156.92 324.14C251.038 196.95 380.76 100.525 529.682 47.0583C678.603 -6.40807 840.035 -14.5144 993.564 23.7643C1199.41 75.1387 1376.43 206.156 1485.7 388.011C1594.97 569.865 1627.55 787.67 1576.27 993.537Z" fill="white"></path><path d="M1498.63 974.174C1464.18 1112.34 1389.53 1237.18 1284.13 1332.92C1178.72 1428.66 1047.29 1491 906.457 1512.04C765.624 1533.09 621.712 1511.91 492.918 1451.17C364.124 1390.43 256.233 1292.87 182.888 1170.82C109.542 1048.77 74.0357 907.707 80.8584 765.477C87.6811 623.246 136.526 486.232 221.218 371.761C305.91 257.289 422.644 170.501 556.66 122.37C690.676 74.2384 835.955 66.9262 974.127 101.357C1159.41 147.579 1318.75 265.492 1417.1 429.167C1515.46 592.843 1544.79 788.881 1498.63 974.174Z" fill="#50AF95"></path><path fill-rule="evenodd" clip-rule="evenodd" d="M889.321 829.879C884.333 830.254 858.559 831.792 801.06 831.792C755.329 831.792 722.859 830.42 711.468 829.879C534.737 822.103 402.824 791.323 402.824 754.481C402.824 717.64 534.737 686.901 711.469 679V799.228C723.026 800.059 756.119 802.014 801.851 802.014C856.729 802.014 884.209 799.727 889.156 799.268V679.084C1065.51 686.944 1197.14 717.719 1197.14 754.483C1197.14 791.247 1065.55 822.02 889.16 829.839L889.321 829.879ZM889.321 666.648V559.062H1135.44V395H465.351V559.062H711.427V666.608C511.409 675.798 361 715.43 361 762.924C361 810.417 511.409 850.008 711.427 859.24V1204H889.28V859.116C1088.83 849.925 1239 810.334 1239 762.883C1239 715.432 1088.96 675.841 889.28 666.615L889.321 666.648Z" fill="white"></path></svg> 